<?xml version="1.0" encoding="UTF-8" standalone="no"?>
<!-- Created with Inkscape (http://www.inkscape.org/) -->

<svg
   xmlns:dc="http://purl.org/dc/elements/1.1/"
   xmlns:cc="http://creativecommons.org/ns#"
   xmlns:rdf="http://www.w3.org/1999/02/22-rdf-syntax-ns#"
   xmlns:svg="http://www.w3.org/2000/svg"
   xmlns="http://www.w3.org/2000/svg"
   xmlns:sodipodi="http://sodipodi.sourceforge.net/DTD/sodipodi-0.dtd"
   xmlns:inkscape="http://www.inkscape.org/namespaces/inkscape"
   width="512"
   height="512"
   id="svg2"
   version="1.1"
   inkscape:version="0.48.5 r10040"
   sodipodi:docname="icon.svg"
   inkscape:export-filename="/Users/arjan/Sites/boodschappen/icon.png"
   inkscape:export-xdpi="20.040001"
   inkscape:export-ydpi="20.040001">
  <defs
     id="defs4" />
  <sodipodi:namedview
     id="base"
     pagecolor="#ffffff"
     bordercolor="#666666"
     borderopacity="1.0"
     inkscape:pageopacity="0.0"
     inkscape:pageshadow="2"
     inkscape:zoom="0.97265625"
     inkscape:cx="256"
     inkscape:cy="256"
     inkscape:document-units="px"
     inkscape:current-layer="layer1"
     showgrid="false"
     inkscape:window-width="1074"
     inkscape:window-height="705"
     inkscape:window-x="0"
     inkscape:window-y="0"
     inkscape:window-maximized="0" />
  <metadata
     id="metadata7">
    <rdf:RDF>
      <cc:Work
         rdf:about="">
        <dc:format>image/svg+xml</dc:format>
        <dc:type
           rdf:resource="http://purl.org/dc/dcmitype/StillImage" />
        <dc:title></dc:title>
      </cc:Work>
    </rdf:RDF>
  </metadata>
  <g
     inkscape:label="Layer 1"
     inkscape:groupmode="layer"
     id="layer1"
     transform="translate(0,-540.36218)">
    <rect
       style="fill:#e0b559;fill-opacity:1;stroke:none;stroke-width:30;stroke-linecap:round;stroke-linejoin:round;stroke-miterlimit:4;stroke-opacity:1;stroke-dasharray:none;stroke-dashoffset:0"
       id="rect3896"
       width="512"
       height="512"
       x="-1.0281124"
       y="5.6843419e-14"
       transform="translate(0,540.36218)" />
    <path
       style="font-size:medium;font-style:normal;font-variant:normal;font-weight:normal;font-stretch:normal;text-indent:0;text-align:start;text-decoration:none;line-height:normal;letter-spacing:normal;word-spacing:normal;text-transform:none;direction:ltr;block-progression:tb;writing-mode:lr-tb;text-anchor:start;baseline-shift:baseline;color:#000000;fill:#4e986c;fill-opacity:1;stroke:none;stroke-width:30;marker:none;visibility:visible;display:inline;overflow:visible;enable-background:accumulate;font-family:Sans;-inkscape-font-specification:Sans"
       d="m 55.59375,755.875 a 15.0015,15.0015 0 0 0 -14.125,20 l 72.96875,206.15625 a 15.0015,15.0015 0 0 0 14.15625,10 l 261.21875,0 a 15.0015,15.0015 0 0 0 14.28125,-10.375 L 470.6875,775.5 a 15.0015,15.0015 0 0 0 -14.28125,-19.625 l -400.8125,0 z m 21.25,30 358.9375,0 -56.875,176.15625 -239.71875,0 L 76.84375,785.875 z"
       id="path3052"
       inkscape:connector-curvature="0" />
    <path
       style="fill:#4e986c;fill-opacity:1;stroke:none"
       d="m 96.945384,801.39019 50.778026,0 5.02753,26.6459 -46.756,0 z"
       id="rect3822"
       inkscape:connector-curvature="0"
       sodipodi:nodetypes="ccccc" />
    <path
       sodipodi:nodetypes="ccccc"
       inkscape:connector-curvature="0"
       id="path3825"
       d="m 112.02797,843.62142 43.73949,-0.50275 6.53578,29.15966 -40.72296,0 z"
       style="fill:#4e986c;fill-opacity:1;stroke:none" />
    <path
       style="fill:#4e986c;fill-opacity:1;stroke:none"
       d="m 127.11056,887.3609 36.19819,-0.50275 6.03303,29.66242 -32.17617,0.50275 z"
       id="path3827"
       inkscape:connector-curvature="0"
       sodipodi:nodetypes="ccccc" />
    <path
       sodipodi:nodetypes="ccccc"
       inkscape:connector-curvature="0"
       id="path3829"
       d="m 142.69589,931.10039 29.15965,0 4.02203,17.0936 -27.14864,0 z"
       style="fill:#4e986c;fill-opacity:1;stroke:none" />
    <path
       style="fill:#4e986c;fill-opacity:1;stroke:none"
       d="m 184.92713,931.60315 42.23122,0 -1.0055,16.08809 -38.20921,0 z"
       id="path3831"
       inkscape:connector-curvature="0"
       sodipodi:nodetypes="ccccc" />
    <path
       sodipodi:nodetypes="ccccc"
       inkscape:connector-curvature="0"
       id="path3833"
       d="m 175.37482,887.36091 46.25325,0 3.01652,29.15967 -43.73948,0 z"
       style="fill:#4e986c;fill-opacity:1;stroke:none" />
    <path
       style="fill:#4e986c;fill-opacity:1;stroke:none"
       d="m 167.83354,843.11867 51.78352,0 2.51377,29.15966 -49.77252,0 z"
       id="path3835"
       inkscape:connector-curvature="0"
       sodipodi:nodetypes="ccccc" />
    <path
       sodipodi:nodetypes="ccccc"
       inkscape:connector-curvature="0"
       id="path3837"
       d="m 160.29225,801.89294 56.3083,0 1.50826,26.6459 -53.79454,0 z"
       style="fill:#4e986c;fill-opacity:1;stroke:none" />
    <path
       sodipodi:nodetypes="ccccc"
       inkscape:connector-curvature="0"
       id="path3839"
       d="m 237.21341,931.1004 40.22021,0.50275 -1.0055,16.08809 -39.21471,0 z"
       style="fill:#4e986c;fill-opacity:1;stroke:none" />
    <path
       style="fill:#4e986c;fill-opacity:1;stroke:none"
       d="m 234.19689,887.36091 46.25325,0 -1.50825,30.16518 -43.23673,-0.50276 z"
       id="path3841"
       inkscape:connector-curvature="0"
       sodipodi:nodetypes="ccccc" />
    <path
       sodipodi:nodetypes="ccccc"
       inkscape:connector-curvature="0"
       id="path3843"
       d="m 230.67763,842.61592 51.78352,0 -0.50275,29.66241 -49.26976,0 z"
       style="fill:#4e986c;fill-opacity:1;stroke:none" />
    <path
       style="fill:#4e986c;fill-opacity:1;stroke:none"
       d="m 226.65561,801.39019 58.82206,0 -1.0055,26.6459 -55.80555,0 z"
       id="path3845"
       inkscape:connector-curvature="0"
       sodipodi:nodetypes="ccccc" />
    <path
       sodipodi:nodetypes="ccccc"
       inkscape:connector-curvature="0"
       id="path3847"
       d="m 416.04795,801.39019 -50.77802,0 -5.02753,26.6459 46.756,0 z"
       style="fill:#4e986c;fill-opacity:1;stroke:none" />
    <path
       style="fill:#4e986c;fill-opacity:1;stroke:none"
       d="m 400.96537,843.62142 -43.73949,-0.50275 -6.53578,29.15966 40.72296,0 z"
       id="path3849"
       inkscape:connector-curvature="0"
       sodipodi:nodetypes="ccccc" />
    <path
       sodipodi:nodetypes="ccccc"
       inkscape:connector-curvature="0"
       id="path3851"
       d="m 385.88278,887.3609 -36.19819,-0.50275 -6.03303,29.66242 32.17617,0.50275 z"
       style="fill:#4e986c;fill-opacity:1;stroke:none" />
    <path
       style="fill:#4e986c;fill-opacity:1;stroke:none"
       d="m 370.29745,931.10039 -29.15965,0 -4.02203,17.0936 27.14864,0 z"
       id="path3853"
       inkscape:connector-curvature="0"
       sodipodi:nodetypes="ccccc" />
    <path
       sodipodi:nodetypes="ccccc"
       inkscape:connector-curvature="0"
       id="path3855"
       d="m 328.06621,931.60315 -42.23122,0 1.0055,16.08809 38.20921,0 z"
       style="fill:#4e986c;fill-opacity:1;stroke:none" />
    <path
       style="fill:#4e986c;fill-opacity:1;stroke:none"
       d="m 337.61852,887.36091 -46.25325,0 -3.01652,29.15967 43.73948,0 z"
       id="path3857"
       inkscape:connector-curvature="0"
       sodipodi:nodetypes="ccccc" />
    <path
       sodipodi:nodetypes="ccccc"
       inkscape:connector-curvature="0"
       id="path3859"
       d="m 345.1598,843.11867 -51.78352,0 -2.51377,29.15966 49.77252,0 z"
       style="fill:#4e986c;fill-opacity:1;stroke:none" />
    <path
       style="fill:#4e986c;fill-opacity:1;stroke:none"
       d="m 352.70109,801.89294 -56.3083,0 -1.50826,26.6459 53.79454,0 z"
       id="path3861"
       inkscape:connector-curvature="0"
       sodipodi:nodetypes="ccccc" />
    <path
       style="fill:#4e986c;fill-opacity:1;stroke:none"
       d="m 275.77993,931.1004 -40.22021,0.50275 1.0055,16.08809 39.21471,0 z"
       id="path3863"
       inkscape:connector-curvature="0"
       sodipodi:nodetypes="ccccc" />
    <path
       sodipodi:nodetypes="ccccc"
       inkscape:connector-curvature="0"
       id="path3865"
       d="m 278.79645,887.36091 -46.25325,0 1.50825,30.16518 43.23673,-0.50276 z"
       style="fill:#4e986c;fill-opacity:1;stroke:none" />
    <path
       style="fill:#4e986c;fill-opacity:1;stroke:none"
       d="m 282.31571,842.61592 -51.78352,0 0.50275,29.66241 49.26976,0 z"
       id="path3867"
       inkscape:connector-curvature="0"
       sodipodi:nodetypes="ccccc" />
    <path
       sodipodi:nodetypes="ccccc"
       inkscape:connector-curvature="0"
       id="path3869"
       d="m 286.33773,801.39019 -58.82206,0 1.0055,26.6459 55.80555,0 z"
       style="fill:#4e986c;fill-opacity:1;stroke:none" />
    <path
       style="font-size:medium;font-style:normal;font-variant:normal;font-weight:normal;font-stretch:normal;text-indent:0;text-align:start;text-decoration:none;line-height:normal;letter-spacing:normal;word-spacing:normal;text-transform:none;direction:ltr;block-progression:tb;writing-mode:lr-tb;text-anchor:start;baseline-shift:baseline;color:#000000;fill:#4e986c;fill-opacity:1;stroke:none;stroke-width:30;marker:none;visibility:visible;display:inline;overflow:visible;enable-background:accumulate;font-family:Sans;-inkscape-font-specification:Sans"
       d="m 258.9375,600.6875 c -23.99278,0.12381 -48.19979,7.73845 -67,23.5625 -18.80021,15.82405 -31.53784,40.32389 -31.71875,70.46875 l 0,0.0625 0,0.0312 0,78.15625 30,0 0,-78.0625 0,-0.0937 c 0.15689,-22.12925 8.47718,-37.032 21.0625,-47.625 12.6038,-10.60856 30.15226,-16.40887 47.8125,-16.5 17.66024,-0.0911 34.9942,5.50215 47.34375,15.96875 12.34955,10.4666 20.50231,25.38515 20.34375,48.0625 l 0,0.0625 0,0.0312 0,78.15625 30,0 0,-78.03125 c 3e-4,-0.0425 -2.5e-4,-0.0825 0,-0.125 0.17785,-30.45176 -12.25208,-55.19482 -30.9375,-71.03125 -18.7115,-15.85854 -42.91347,-23.21756 -66.90625,-23.09375 z"
       id="path3871"
       inkscape:connector-curvature="0" />
  </g>
</svg>
